<svg width="86" height="69" viewBox="0 0 86 69" fill="none" xmlns="http://www.w3.org/2000/svg">
<path d="M53.1027 18.1105C53.1259 18.1111 53.1492 18.1116 53.1724 18.1122C53.0757 18.33 52.9892 18.5551 52.9142 18.7874C52.2552 18.523 51.5787 18.2852 50.8871 18.0748C51.6186 18.0816 52.3599 18.0929 53.1027 18.1105ZM63.4931 28.1588C64.5117 27.9094 65.4852 27.4936 66.3565 26.9115C66.3583 26.9536 66.3601 26.9957 66.3619 27.038C66.442 28.965 66.4166 30.8222 66.3941 32.4776C66.3843 33.1929 66.3751 33.8706 66.3751 34.5C66.3751 35.1292 66.3843 35.807 66.3941 36.5225C66.4166 38.179 66.442 40.0381 66.3619 41.9664C66.3062 43.307 66.2021 44.5335 66.0322 45.5598C65.8524 46.6466 65.6441 47.2177 65.5345 47.4243C65.042 48.3526 63.8794 49.43 61.7576 50.0698C60.1811 50.537 57.0014 50.8024 53.0986 50.8937C52.3531 50.9111 51.6095 50.9221 50.876 50.9285C53.5315 50.1223 55.9642 48.9099 58.0413 47.3517C62.0514 44.3435 64.938 39.8462 64.938 34.5C64.938 32.2144 64.4105 30.084 63.4931 28.1588ZM27.9739 47.3517C30.0481 48.9078 32.4769 50.1189 35.1281 50.9252C34.3966 50.9184 33.6552 50.9071 32.9125 50.8895C29.0055 50.7967 25.822 50.5315 24.2499 50.0675C22.1674 49.4446 20.9945 48.3769 20.4798 47.4226C20.3667 47.2045 20.1607 46.6299 19.983 45.5553C19.8131 44.5281 19.709 43.3017 19.6533 41.962C19.5732 40.035 19.5985 38.1778 19.6211 36.5224C19.6309 35.8071 19.6401 35.1294 19.6401 34.5C19.6401 33.8868 19.6316 33.2251 19.6226 32.5258C19.6011 30.8589 19.5769 28.979 19.6589 27.0366C19.7155 25.6952 19.82 24.4667 19.9897 23.4378C20.1678 22.3581 20.3735 21.7828 20.4851 21.5673C20.9801 20.641 22.1421 19.5681 24.2574 18.9302C25.8339 18.463 29.0136 18.1976 32.9166 18.1063C33.662 18.0889 34.4057 18.0779 35.1391 18.0715C32.4836 18.8777 30.051 20.0901 27.9739 21.6483C23.9638 24.6565 21.0771 29.1538 21.0771 34.5C21.0771 39.8462 23.9638 44.3435 27.9739 47.3517ZM43.0076 38.5009C40.7744 38.5009 38.9089 37.8122 37.7022 36.9078C36.4943 36.0025 36.1755 35.1023 36.1755 34.5C36.1755 33.893 36.4952 32.9934 37.6982 32.091C38.9009 31.1888 40.765 30.4991 43.0076 30.4991C45.2501 30.4991 47.1143 31.1888 48.317 32.091C49.52 32.9934 49.8397 33.893 49.8397 34.5C49.8397 35.1023 49.5208 36.0025 48.3129 36.9078C47.1062 37.8122 45.2408 38.5009 43.0076 38.5009ZM81.2497 45.335C81.5832 40.8893 81.5834 28.1285 81.2503 23.673C80.9297 18.6723 79.279 13.6683 73.9666 9.69666C68.9069 5.90256 62.983 4.90116 57.205 4.68284C51.4589 4.43912 34.5512 4.43905 28.7994 4.68265C23.0259 4.88974 17.1076 5.89325 12.0367 9.68282C6.71112 13.6627 5.08644 18.6748 4.75027 23.6535C4.41678 28.099 4.41657 40.8711 4.74966 45.3268C5.07037 50.3286 6.72161 55.3338 12.0367 59.3058C17.107 63.0949 23.0097 64.0985 28.7948 64.3172C34.5406 64.5609 51.4485 64.5609 57.2005 64.3174C62.9842 64.1104 68.9118 63.1084 73.9736 59.2981C79.2686 55.3241 80.9129 50.323 81.2497 45.335Z" fill="white" stroke="#C09D69" stroke-width="9"/>
</svg>
