<svg width="50" height="61" viewBox="0 0 50 61" fill="none" xmlns="http://www.w3.org/2000/svg">
<path d="M42.3132 35.8125H43.9184L44.2658 34.2453L46.3919 24.6536L46.9312 22.2207H44.4393H33.1459V17.9963C33.1459 17.1862 33.4108 16.5092 34.0686 15.9826C34.7892 15.4057 36.2278 14.8144 38.9566 14.8144H45H47V12.8144V4.64801V2.87041L45.2347 2.66182L45 4.64801C45.2347 2.66182 45.2346 2.66181 45.2344 2.66179L45.234 2.66174L45.2328 2.6616L45.2289 2.66115L45.2153 2.65955L45.1647 2.65372C45.1208 2.64869 45.0567 2.64144 44.974 2.63229C44.8085 2.61398 44.5681 2.58806 44.264 2.55706C43.6559 2.49509 42.7918 2.41271 41.7618 2.33036C39.7077 2.16615 36.9678 2 34.2723 2C28.5572 2 23.5826 3.19349 19.9762 5.69271C16.2844 8.25107 14.169 12.0905 14.169 16.9105V22.2207H4H2V24.2207V33.8125V35.8125H4H14.169V57V59H16.169H31.1459H33.1459V57V35.8125H42.3132Z" fill="white" stroke="#C09D69" stroke-width="4"/>
</svg>
